<svg width="100" height="54" viewBox="0 0 100 54" fill="none" xmlns="http://www.w3.org/2000/svg">
<path d="M90.2566 46.483H9.3252V49.6922H90.2566V46.483Z" fill="#4F4F4F"/>
<path fill-rule="evenodd" clip-rule="evenodd" d="M88.8483 0H10.7321C9.95886 0 9.32617 0.582198 9.32617 1.29376V47.3736C9.32617 48.0852 9.95886 48.6673 10.7321 48.6673H88.8483C89.6215 48.6673 90.2543 48.0851 90.2543 47.3736V1.29376C90.2543 0.582283 89.6216 0 88.8483 0ZM11.9145 2.72911H88.0625V46.2877H11.9145V2.72911Z" fill="#636363"/>
<path d="M100 49.6792H0V52.1352H100V49.6792Z" fill="#636363"/>
<path fill-rule="evenodd" clip-rule="evenodd" d="M43.0968 49.6792H56.8999V50.0619C56.8999 50.5346 56.4796 50.9214 55.9658 50.9214H44.0308C43.517 50.9214 43.0967 50.5346 43.0967 50.0619V49.6792H43.0968H43.0968Z" fill="black"/>
<path fill-rule="evenodd" clip-rule="evenodd" d="M49.9993 52.1351H99.8739C99.8968 52.1351 99.9154 52.1523 99.9154 52.1734C99.9154 52.8867 96.493 53.512 94.4607 53.67H49.9992H5.53773C3.50537 53.512 0.0830078 52.8868 0.0830078 52.1734C0.0830078 52.1523 0.101708 52.1351 0.124554 52.1351H49.9991H49.9993H49.9993Z" fill="#4F4F4F"/>
<path d="M49.403 1.65696C49.6131 1.85369 49.9567 1.85647 50.1706 1.66316C50.3844 1.46985 50.3874 1.15366 50.1773 0.956926C49.9672 0.760192 49.6235 0.757415 49.4097 0.950723C49.1959 1.14403 49.1929 1.46022 49.403 1.65696Z" fill="#424242"/>
<path d="M49.492 1.57787C49.6546 1.73015 49.9206 1.7323 50.0861 1.58267C50.2516 1.43305 50.254 1.18831 50.0913 1.03603C49.9287 0.883759 49.6627 0.881609 49.4972 1.03123C49.3317 1.18086 49.3294 1.4256 49.492 1.57787Z" fill="#595959"/>
<path fill-rule="evenodd" clip-rule="evenodd" d="M50.0923 1.03583C50.2549 1.18808 50.2526 1.43281 50.087 1.58242C50.0565 1.61014 50.0224 1.63261 49.9861 1.6499C49.8691 1.59243 49.7677 1.48876 49.7113 1.35397C49.6484 1.20384 49.6548 1.04787 49.7159 0.926562C49.8485 0.904013 49.9906 0.940549 50.0923 1.03575V1.03583Z" fill="#636363"/>
<path d="M11.9541 2.74518H88.0432V46.2304H11.9541V2.74518Z" fill="#636363"/>
</svg>
