<svg width="100" height="54" viewBox="0 0 100 54" fill="none" xmlns="http://www.w3.org/2000/svg">
<path d="M90.2566 46.483H9.3252V49.6922H90.2566V46.483Z" fill="#B3B3B3"/>
<path fill-rule="evenodd" clip-rule="evenodd" d="M88.8464 0H10.7302C9.9569 0 9.32422 0.582198 9.32422 1.29376V47.3736C9.32422 48.0852 9.9569 48.6673 10.7302 48.6673H88.8464C89.6196 48.6673 90.2523 48.0851 90.2523 47.3736V1.29376C90.2523 0.582283 89.6196 0 88.8464 0ZM11.9112 2.7291H88.0593V46.2877H11.9112V2.7291Z" fill="#CCCCCC"/>
<path d="M100 49.6792H0V52.1352H100V49.6792Z" fill="#CCCCCC"/>
<path fill-rule="evenodd" clip-rule="evenodd" d="M43.0977 49.6792H56.9009V50.0619C56.9009 50.5346 56.4805 50.9214 55.9668 50.9214H44.0318C43.518 50.9214 43.0977 50.5346 43.0977 50.0619V49.6792H43.0977H43.0977Z" fill="#999999"/>
<path fill-rule="evenodd" clip-rule="evenodd" d="M50.0002 52.1352H99.8748C99.8978 52.1352 99.9164 52.1524 99.9164 52.1734C99.9164 52.8868 96.494 53.512 94.4617 53.67H50.0002H5.53871C3.50635 53.5121 0.0839844 52.8868 0.0839844 52.1734C0.0839844 52.1524 0.102685 52.1352 0.125531 52.1352H50.0001H50.0003H50.0002Z" fill="#B3B3B3"/>
<path d="M49.402 1.65702C49.6121 1.85375 49.9557 1.85653 50.1696 1.66322C50.3834 1.46991 50.3864 1.15372 50.1763 0.956987C49.9662 0.760253 49.6226 0.757476 49.4087 0.950784C49.1949 1.14409 49.1919 1.46028 49.402 1.65702Z" fill="#424242"/>
<path d="M49.4891 1.57793C49.6517 1.73021 49.9177 1.73236 50.0832 1.58273C50.2487 1.43311 50.251 1.18837 50.0884 1.0361C49.9258 0.88382 49.6598 0.88167 49.4943 1.03129C49.3288 1.18092 49.3264 1.42566 49.4891 1.57793Z" fill="#595959"/>
<path fill-rule="evenodd" clip-rule="evenodd" d="M50.0894 1.03589C50.252 1.18814 50.2497 1.43287 50.0841 1.58249C50.0535 1.61021 50.0194 1.63267 49.9831 1.64996C49.8662 1.59249 49.7648 1.48882 49.7084 1.35403C49.6454 1.20391 49.6519 1.04793 49.713 0.926623C49.8456 0.904074 49.9877 0.94061 50.0894 1.03581V1.03589V1.03589Z" fill="#636363"/>
<rect x="11.9824" y="2.78369" width="76.0355" height="43.4911" fill="#CCCCCC"/>
</svg>
